# xmcd
#
# Track frame offsets:
# 150
# 19152
# 33770
# 49540
# 65152
# 81782
# 99070
# 117357
# 133612
# 149572
# 165262
# 181177
# 197292
# 211932
# 227662
# 243352
# 257467
# 272980
# 290702
# 308745
#
# Disc length: 4360 seconds
#
#
# Revision: 9
# Processed by: cddbd v1.5.2PL0 Copyright (c) Steve Scherf et al.
# Submitted via: FreeRIP 2.951 
#
DISCID=0e110614
DTITLE=Various Artist - Just The Best 2001-03 [CD2)
DYEAR=2001
DGENRE=Pop
TTITLE0=It's Raining Men
TTITLE1=Fiesta
TTITLE2=Bow Wow (That's My Name)
TTITLE3=Let U Go
TTITLE4=We Come 1
TTITLE5=Posse (I Need You On The Floor)
TTITLE6=Turn The Tide
TTITLE7=Be.Angeled
TTITLE8=On The Move
TTITLE9=Be Cool
TTITLE10=Light A Rainbow
TTITLE11=Seven Colours
TTITLE12=Bel Amour
TTITLE13=Off
TTITLE14=Give A Little
TTITLE15=My Love Is Dangerous
TTITLE16=Rivers Of Joy
TTITLE17=So Fresh, So Clean
TTITLE18=Survivor
TTITLE19=Way To Mars
EXTD=
EXTT0=[Geri Halliwel]
EXTT1=[R. Kelly]
EXTT2=[Li´L Bow Wow]
EXTT3=[ATB]
EXTT4=[Faithless]
EXTT5=[Scooter]
EXTT6=[Sylver]
EXTT7=[Jam and Spoon feat, Rea]
EXTT8=[Barthezz]
EXTT9=[Paffendorf]
EXTT10=[Tukan]
EXTT11=[Lost Witness]
EXTT12=[Bel Amour]
EXTT13=[Noname]
EXTT14=[Ebonique]
EXTT15=[Zoe]
EXTT16=[No Angels]
EXTT17=[Outkast]
EXTT18=[Destiny's Child]
EXTT19=[Somersault and Xavier Naidoo]
PLAYORDER=
